# xmcd
#
# Track frame offsets: 
#        150
#        4735
#        20561
#        27899
#        32675
#        44407
#        50700
#        64732
#        71953
#        84650
#        97908
#        108571
#        124798
#        141547
#        151310
#        159861
#        165667
#        176503
#        187729
#        203315
#        224110
#        256040
#        260412
#        275357
#        288045
#
# Disc length: 3942 seconds
#
# Revision: 9
# Processed by: cddbd v1.5.2PL0 Copyright (c) Steve Scherf et al.
# Submitted via: ExactAudioCopyFreeDBPlugin 1.0
#
DISCID=5c0f6419
DTITLE=Johnny Cash - At Folsom Prison (Legacy Edition) [CD1] Show O
DTITLE=ne
DYEAR=1968
DGENRE=Country
TTITLE0=Opening Announcements from Hugh Cherry
TTITLE1=Blue Suede Shoes (ft Carl Perkins)
TTITLE2=This Ole House (ft The Statler Brothers)
TTITLE3=Announcements and Johnny Cash Intro from Hugh Cherry
TTITLE4=Folsom Prison Blues
TTITLE5=Busted
TTITLE6=Dark as a Dungeon
TTITLE7=I Still Miss Someone
TTITLE8=Cocaine Blues
TTITLE9=25 Minutes to Go
TTITLE10=I'm Here to Get My Baby Out of Jail (previously unissued)
TTITLE11=Orange Blossom Special
TTITLE12=The Long Black Veil
TTITLE13=Send a Picture of Mother
TTITLE14=The Wall
TTITLE15=Dirty Old Egg-Sucking Dog
TTITLE16=Flushed from the Bathroom of Your Heart
TTITLE17=Joe Bean
TTITLE18=Jackson (ft June Carter Cash)
TTITLE19=I Got a Woman (ft June Carter Cash) (previously unissued)
TTITLE20=The Legend of John Henry's Hammer
TTITLE21=June's Poem (previously unissued)
TTITLE22=Green, Green Grass of Home
TTITLE23=Greystone Chapel
TTITLE24=Closing Announcements
EXTD=
EXTT0=
EXTT1=
EXTT2=
EXTT3=
EXTT4=
EXTT5=
EXTT6=
EXTT7=
EXTT8=
EXTT9=
EXTT10=
EXTT11=
EXTT12=
EXTT13=
EXTT14=
EXTT15=
EXTT16=
EXTT17=
EXTT18=
EXTT19=
EXTT20=
EXTT21=
EXTT22=
EXTT23=
EXTT24=
PLAYORDER=
